<svg width="24" height="24" viewBox="0 0 24 24" fill="none" xmlns="http://www.w3.org/2000/svg">
<g clip-path="url(#clip0_15_21)">
<path d="M21.7594 22.7562H2.23594C1.00313 22.7562 0 21.7531 0 20.5203V4.23594C0 3.00312 1.00313 2 2.23594 2H21.7594C22.9969 2 24 3.00312 24 4.23594C24 4.59219 23.7094 4.88281 23.3531 4.8875C22.9969 4.8875 22.7062 4.59687 22.7016 4.24062C22.7016 3.72031 22.2797 3.30312 21.7594 3.29844H2.23594C1.71563 3.29844 1.29844 3.72031 1.29375 4.24062V20.5203C1.29375 21.0406 1.71563 21.4625 2.23594 21.4625H21.7594C22.2797 21.4625 22.7016 21.0406 22.7016 20.5203V11.8156C22.7016 11.4594 22.9922 11.1687 23.3484 11.1641C23.7047 11.1641 23.9953 11.4547 24 11.8109V20.5156C24 21.7531 22.9969 22.7562 21.7594 22.7562Z" fill="#36496D"/>
<path d="M0.646973 4.23591V7.51248H23.3485V4.23591C23.3485 3.35935 22.636 2.64685 21.7595 2.64685H2.23604C1.35947 2.64685 0.646973 3.35935 0.646973 4.23591Z" fill="#C6B0DC"/>
<path d="M23.3531 8.16406H0.646875C0.290625 8.16406 0 7.87344 0 7.51719V4.23594C0 3.00312 1.00313 2 2.23594 2H21.7594C22.9969 2 24 3.00312 24 4.23594V7.5125C24 7.87344 23.7094 8.16406 23.3531 8.16406ZM1.29844 6.86562H22.7016V4.24062C22.7016 3.72031 22.2797 3.29844 21.7594 3.29844H2.24062C1.72031 3.29844 1.30313 3.72031 1.29844 4.23594V6.86562V6.86562Z" fill="#36496D"/>
<path d="M13.814 5.73125H12.5812C12.225 5.73125 11.9343 5.44063 11.9343 5.08438C11.9343 4.72813 12.225 4.4375 12.5812 4.4375H13.814C14.1703 4.4375 14.4609 4.72813 14.4609 5.08438C14.4656 5.44063 14.175 5.73125 13.814 5.73125ZM17.2546 5.73125H16.0218C15.6656 5.73125 15.375 5.44063 15.375 5.08438C15.375 4.72813 15.6656 4.4375 16.0218 4.4375H17.2546C17.6109 4.4375 17.9015 4.72813 17.9015 5.08438C17.9015 5.44063 17.6109 5.73125 17.2546 5.73125ZM20.6906 5.73125H19.4578C19.1015 5.73125 18.8109 5.44063 18.8109 5.08438C18.8109 4.72813 19.1015 4.4375 19.4578 4.4375H20.6906C21.0468 4.4375 21.3375 4.72813 21.3375 5.08438C21.3421 5.44063 21.0515 5.73125 20.6906 5.73125Z" fill="#36496D"/>
<path d="M5.2876 14.5859H18.7126V17.5672H5.2876V14.5859Z" fill="#36496D"/>
<path d="M18.7125 18.2141H5.2875C4.93125 18.2141 4.64062 17.9234 4.64062 17.5672V14.5812C4.64062 14.225 4.93125 13.9344 5.2875 13.9344H18.7125C19.0688 13.9344 19.3594 14.225 19.3594 14.5812V17.5672C19.3641 17.9234 19.0734 18.2141 18.7125 18.2141ZM5.93437 16.9203H18.0656V15.2328H5.93437V16.9203V16.9203ZM16.7578 12.4437H7.24219C6.88594 12.4531 6.58594 12.1719 6.57656 11.8109C6.56719 11.45 6.84844 11.1547 7.20938 11.1453H16.7625C17.1188 11.1359 17.4187 11.4172 17.4281 11.7781C17.4375 12.1391 17.1562 12.4344 16.7953 12.4437H16.7578Z" fill="#36496D"/>
</g>
<defs>
<clipPath id="clip0_15_21">
<rect width="24" height="20.7562" fill="white" transform="translate(0 2)"/>
</clipPath>
</defs>
</svg>
