<svg width="24" height="24" viewBox="0 0 24 24" fill="none" xmlns="http://www.w3.org/2000/svg">
<g clip-path="url(#clip0_15_31)">
<path d="M8.76099 18.5656H15.2438V21.3594H8.76099V18.5656Z" fill="#B0D4C1"/>
<path d="M21.5719 2H2.42812C1.0875 2 0 3.0875 0 4.42344V16.8172C0 18.1578 1.0875 19.2406 2.42812 19.2453H8.08125V20.6844H6.73125C6.35625 20.6844 6.05156 20.9891 6.05156 21.3641C6.05156 21.7391 6.35625 22.0438 6.73125 22.0438H17.2734C17.6484 22.0438 17.9531 21.7391 17.9531 21.3641C17.9531 20.9891 17.6484 20.6844 17.2734 20.6844H15.9234V18.7203C15.9375 18.6641 15.9422 18.6078 15.9422 18.5516C15.9328 18.1766 15.6187 17.8812 15.2484 17.8906H2.42812C1.8375 17.8906 1.35938 17.4125 1.35938 16.8219V4.42344C1.35938 3.83281 1.8375 3.35469 2.42812 3.35469H21.5766C22.1672 3.35469 22.6453 3.83281 22.6453 4.42344V16.8172C22.6453 17.4078 22.1672 17.8859 21.5766 17.8859H19.3875C19.0125 17.8953 18.7172 18.2094 18.7266 18.5797C18.7359 18.9547 19.05 19.25 19.4203 19.2406H21.5719C22.9125 19.2406 23.9953 18.1531 24 16.8172V4.42344C24 3.0875 22.9125 2 21.5719 2ZM14.5641 19.2453V20.6844H9.43594V19.2453H14.5641V19.2453Z" fill="#36496D"/>
<path d="M10.3172 14.7313C9.72188 13.8031 9.99375 12.561 10.9219 11.9656C11.85 11.3703 13.0922 11.6422 13.6875 12.5703C14.1094 13.2266 14.1094 14.0703 13.6875 14.7313H18.4031V12.3735L16.9781 12.1438C16.7484 11.3797 16.3406 10.6766 15.7922 10.0953L16.3078 8.75002L14.0906 7.47034L13.1813 8.58596C12.4031 8.40315 11.5922 8.40315 10.8141 8.58596L9.90469 7.47034L7.69219 8.75002L8.20781 10.0953C7.65938 10.6766 7.25625 11.3797 7.02188 12.1438L5.60156 12.3735V14.7313H10.3172V14.7313Z" fill="#B0D4C1"/>
<path d="M18.3985 15.4109H13.6829C13.3079 15.4109 13.0032 15.1062 13.0032 14.7312C13.0032 14.6 13.0407 14.4734 13.111 14.3656C13.5047 13.7515 13.3266 12.9312 12.7079 12.5375C12.0938 12.1437 11.2735 12.3218 10.8797 12.9406C10.6032 13.3765 10.6032 13.9297 10.8797 14.3656C11.0813 14.6797 10.9922 15.1015 10.6782 15.3031C10.5704 15.3734 10.4391 15.4109 10.3126 15.4109H5.59693C5.22193 15.4109 4.91724 15.1062 4.92193 14.7312V12.3734C4.92193 12.0406 5.16568 11.7593 5.4938 11.7031L6.51568 11.539C6.73599 10.9672 7.04537 10.4328 7.42974 9.95935L7.05943 8.99372C6.94224 8.68435 7.06412 8.33279 7.35474 8.16404L9.57193 6.88435C9.86255 6.72029 10.2282 6.78591 10.4391 7.04372L11.0907 7.84529C11.6954 7.75154 12.3141 7.75154 12.9188 7.84529L13.5704 7.04372C13.7813 6.78591 14.1469 6.7156 14.4376 6.88435L16.6547 8.16404C16.9454 8.33279 17.0672 8.68435 16.9501 8.99372L16.5797 9.95935C16.9641 10.4375 17.2688 10.9672 17.4891 11.539L18.511 11.7031C18.8391 11.7547 19.0829 12.0406 19.0829 12.3734V14.7312C19.0782 15.1062 18.7735 15.4109 18.3985 15.4109V15.4109ZM14.6485 14.0515H17.7235V12.95L16.8704 12.814C16.6126 12.7718 16.4016 12.589 16.3266 12.3406C16.1251 11.675 15.7688 11.0656 15.2954 10.5593C15.1172 10.3718 15.061 10.0953 15.1547 9.85154L15.4641 9.04529L14.2501 8.34216L13.7063 9.01247C13.5422 9.21404 13.2797 9.3031 13.0266 9.24685C12.3469 9.09216 11.6438 9.09216 10.9688 9.24685C10.7157 9.3031 10.4532 9.21404 10.2891 9.01247L9.74537 8.34216L8.5313 9.04529L8.84068 9.85154C8.93443 10.0953 8.87818 10.3672 8.70005 10.5593C8.22662 11.0656 7.87037 11.675 7.6688 12.3406C7.5938 12.589 7.38287 12.7718 7.12505 12.814L6.27193 12.95V14.0515H9.34693C9.32818 13.9203 9.3188 13.7843 9.3188 13.6484C9.33755 12.1672 10.5516 10.9859 12.0329 11.0047C13.486 11.0234 14.6579 12.1953 14.6766 13.6484C14.6766 13.7843 14.6672 13.9203 14.6485 14.0515Z" fill="#36496D"/>
</g>
<defs>
<clipPath id="clip0_15_31">
<rect width="24" height="20.0391" fill="white" transform="translate(0 2)"/>
</clipPath>
</defs>
</svg>
