<svg width="24" height="24" viewBox="0 0 24 24" fill="none" xmlns="http://www.w3.org/2000/svg">
<g clip-path="url(#clip0_15_20)">
<path d="M18.7048 3.38904V2.2031C18.7048 1.3406 18.0063 0.646851 17.1485 0.646851H6.20322C5.34072 0.646851 4.64697 1.34529 4.64697 2.2031V3.38904H18.7048ZM4.64697 18.675V21.7969C4.64697 22.6594 5.34541 23.3531 6.20322 23.3531H17.1438C18.0063 23.3531 18.7001 22.6547 18.7001 21.7969V18.675H4.64697Z" fill="#8CAEEC"/>
<path d="M17.1437 0H6.20312C4.98906 0 4 0.989063 4 2.20312V21.7969C4 23.0109 4.98906 24 6.20312 24H17.1437C18.3578 24 19.3469 23.0109 19.3469 21.7969V16.5141C19.3469 16.1578 19.0563 15.8672 18.7 15.8719C18.3438 15.8719 18.0578 16.1625 18.0578 16.5141V18.0281H5.28906V4.03594H18.0578V12C18.0578 12.3562 18.3438 12.6469 18.7 12.6469C19.0563 12.6469 19.3469 12.3609 19.3469 12.0047V2.20312C19.3469 0.989063 18.3625 0 17.1437 0ZM18.0578 19.3172V21.7969C18.0578 22.3031 17.65 22.7109 17.1437 22.7109H6.20312C5.69687 22.7109 5.28906 22.3031 5.28906 21.7969V19.3172H18.0578ZM5.28906 2.74687V2.20312C5.28906 1.69687 5.69687 1.28906 6.20312 1.28906H17.1437C17.65 1.28906 18.0578 1.69687 18.0578 2.20312V2.74687H5.28906Z" fill="#36496D"/>
<path d="M11.6735 21.4547C11.9169 21.4547 12.1142 21.2574 12.1142 21.0141C12.1142 20.7707 11.9169 20.5734 11.6735 20.5734C11.4302 20.5734 11.2329 20.7707 11.2329 21.0141C11.2329 21.2574 11.4302 21.4547 11.6735 21.4547Z" fill="#36496D"/>
<path d="M11.6733 22.1016C11.0733 22.1016 10.5858 21.6141 10.5858 21.0141C10.5858 20.4141 11.0733 19.9266 11.6733 19.9266C12.2733 19.9266 12.7608 20.4141 12.7608 21.0141C12.7608 21.6141 12.2733 22.1016 11.6733 22.1016ZM10.4827 10.4719H7.25771C6.90146 10.4719 6.61084 10.1813 6.61084 9.82502V7.03127C6.61084 6.67502 6.90146 6.3844 7.25771 6.3844H10.4827C10.839 6.3844 11.1296 6.67502 11.1296 7.03127C11.1296 7.38752 10.839 7.67815 10.4827 7.67815H7.90459V9.18284H10.4827C10.839 9.18284 11.1296 9.47346 11.1296 9.82971C11.1249 10.1813 10.839 10.4719 10.4827 10.4719V10.4719Z" fill="#36496D"/>
<path d="M12.8687 7.03125H16.0937V9.825H12.8687V7.03125Z" fill="#36496D"/>
<path d="M16.0938 10.4719H12.8688C12.5125 10.4719 12.2219 10.1813 12.2219 9.82502V7.03127C12.2219 6.67502 12.5125 6.3844 12.8688 6.3844H16.0938C16.45 6.3844 16.736 6.67502 16.736 7.03127V9.82502C16.736 10.1813 16.45 10.4719 16.0938 10.4719ZM13.5157 9.18284H15.4516V7.67815H13.511L13.5157 9.18284Z" fill="#36496D"/>
<path d="M7.25781 12.45H10.4828V15.2438H7.25781V12.45Z" fill="#36496D"/>
<path d="M10.4827 15.8906H7.25771C6.90146 15.8906 6.61084 15.6 6.61084 15.2438V12.4453C6.61084 12.0891 6.90146 11.7985 7.25771 11.7985H10.4827C10.839 11.7985 11.1249 12.0891 11.1249 12.4453V15.2391C11.1249 15.6 10.839 15.8906 10.4827 15.8906ZM7.90459 14.6016H9.83584V13.0969H7.8999L7.90459 14.6016V14.6016ZM16.0937 15.8906H12.8687C12.5124 15.8906 12.2218 15.6 12.2265 15.2438C12.2265 14.8875 12.5171 14.6016 12.8687 14.6016H15.4468V13.0969H12.8687C12.5124 13.0969 12.2218 12.8063 12.2218 12.45C12.2218 12.0938 12.5124 11.8031 12.8687 11.8031H16.0937C16.4499 11.8031 16.7405 12.0938 16.7405 12.45V15.2438C16.7405 15.6 16.4499 15.8906 16.0937 15.8906Z" fill="#36496D"/>
</g>
<defs>
<clipPath id="clip0_15_20">
<rect width="15.3469" height="24" fill="white" transform="translate(4)"/>
</clipPath>
</defs>
</svg>
