<svg width="64" height="24" viewBox="0 0 64 24" fill="none" xmlns="http://www.w3.org/2000/svg">
<path d="M6.63 23.5C4.91 23.5 3.49 23.06 2.37 22.18C1.26 21.3 0.47 20.11 0 18.61L4.02 17.65C4.11 18.2 4.4 18.68 4.89 19.09C5.38 19.49 5.9 19.69 6.45 19.69C6.83 19.69 7.235 19.585 7.665 19.375C8.105 19.165 8.42 18.83 8.61 18.37C8.73 18.08 8.8 17.725 8.82 17.305C8.84 16.885 8.85 16.4 8.85 15.85V1.45H12.99V15.85C12.99 16.54 12.985 17.14 12.975 17.65C12.975 18.16 12.925 18.64 12.825 19.09C12.735 19.53 12.55 19.99 12.27 20.47C11.66 21.53 10.865 22.3 9.885 22.78C8.905 23.26 7.82 23.5 6.63 23.5Z" fill="#343F52"/>
<path d="M22.3109 23.53C21.0409 23.53 20.0059 23.315 19.2059 22.885C18.4059 22.455 17.7809 21.91 17.3309 21.25C16.8909 20.59 16.5759 19.905 16.3859 19.195C16.1959 18.475 16.0809 17.82 16.0409 17.23C16.0009 16.64 15.9809 16.21 15.9809 15.94V6.85H20.1209V14.5C20.1209 14.87 20.1409 15.345 20.1809 15.925C20.2209 16.495 20.3459 17.07 20.5559 17.65C20.7659 18.23 21.1059 18.715 21.5759 19.105C22.0559 19.495 22.7309 19.69 23.6009 19.69C23.9509 19.69 24.3259 19.635 24.7259 19.525C25.1259 19.415 25.5009 19.205 25.8509 18.895C26.2009 18.575 26.4859 18.11 26.7059 17.5C26.9359 16.88 27.0509 16.07 27.0509 15.07L29.3909 16.18C29.3909 17.46 29.1309 18.66 28.6109 19.78C28.0909 20.9 27.3059 21.805 26.2559 22.495C25.2159 23.185 23.9009 23.53 22.3109 23.53ZM27.5609 23.05V17.68H27.0509V6.85H31.1609V23.05H27.5609Z" fill="#343F52"/>
<path d="M34.4531 23.05V1H38.5331V23.05H34.4531Z" fill="#343F52"/>
<path d="M42.1301 4.6V1H46.2101V4.6H42.1301ZM42.1301 23.05V6.85H46.2101V23.05H42.1301Z" fill="#343F52"/>
<path d="M54.007 23.5C52.847 23.5 51.862 23.28 51.052 22.84C50.252 22.39 49.642 21.795 49.222 21.055C48.812 20.305 48.607 19.48 48.607 18.58C48.607 17.83 48.722 17.145 48.952 16.525C49.182 15.905 49.552 15.36 50.062 14.89C50.582 14.41 51.277 14.01 52.147 13.69C52.747 13.47 53.462 13.275 54.292 13.105C55.122 12.935 56.062 12.775 57.112 12.625C58.162 12.465 59.317 12.29 60.577 12.1L59.107 12.91C59.107 11.95 58.877 11.245 58.417 10.795C57.957 10.345 57.187 10.12 56.107 10.12C55.507 10.12 54.882 10.265 54.232 10.555C53.582 10.845 53.127 11.36 52.867 12.1L49.177 10.93C49.587 9.59 50.357 8.5 51.487 7.66C52.617 6.82 54.157 6.4 56.107 6.4C57.537 6.4 58.807 6.62 59.917 7.06C61.027 7.5 61.867 8.26 62.437 9.34C62.757 9.94 62.947 10.54 63.007 11.14C63.067 11.74 63.097 12.41 63.097 13.15V23.05H59.527V19.72L60.037 20.41C59.247 21.5 58.392 22.29 57.472 22.78C56.562 23.26 55.407 23.5 54.007 23.5ZM54.877 20.29C55.627 20.29 56.257 20.16 56.767 19.9C57.287 19.63 57.697 19.325 57.997 18.985C58.307 18.645 58.517 18.36 58.627 18.13C58.837 17.69 58.957 17.18 58.987 16.6C59.027 16.01 59.047 15.52 59.047 15.13L60.247 15.43C59.037 15.63 58.057 15.8 57.307 15.94C56.557 16.07 55.952 16.19 55.492 16.3C55.032 16.41 54.627 16.53 54.277 16.66C53.877 16.82 53.552 16.995 53.302 17.185C53.062 17.365 52.882 17.565 52.762 17.785C52.652 18.005 52.597 18.25 52.597 18.52C52.597 18.89 52.687 19.21 52.867 19.48C53.057 19.74 53.322 19.94 53.662 20.08C54.002 20.22 54.407 20.29 54.877 20.29Z" fill="#343F52"/>
</svg>
